# xmcd
# Track frame offsets:
# 150
# 18080
# 35779
# 53661
# 69391
# 83048
# 99348
# 114064
# 133618
# 152503
# 166167
# 179866
#
# Disc length: 2616 seconds
# Revision: 0
# Processed by: cddbd v1.5.1PL0 Copyright (c) Steve Scherf et al.
# Submitted via: VisiTrax 2.9.10.228 - For more info visit www.synapsa.com
#
DISCID=8c0a360c
DTITLE=Ricky Valance - The Legendary Ricky Valance One of the Best
DYEAR=1900
DGENRE=Oldies
TTITLE0=A Million Ways to Fall
TTITLE1=Haunted by your Memory
TTITLE2=Amazing Love
TTITLE3=So Sad
TTITLE4=Mothers Other Man
TTITLE5=I Say The Grace
TTITLE6=Ready for Love
TTITLE7=Song of the Ocean
TTITLE8=Ain't it Good to Have Somebody
TTITLE9=Time After Time
TTITLE10=All This Time
TTITLE11=One of the Best
EXTD=
EXTT0=
EXTT1=
EXTT2=
EXTT3=
EXTT4=
EXTT5=
EXTT6=
EXTT7=
EXTT8=
EXTT9=
EXTT10=
EXTT11=
PLAYORDER=
